<svg id="eN4biezDCcF1" xmlns="http://www.w3.org/2000/svg" xmlns:xlink="http://www.w3.org/1999/xlink" viewBox="0 0 24.804 20" shape-rendering="geometricPrecision" text-rendering="geometricPrecision"><path d="M1.194,11.286h19.323L13.873,17.93c-.32341.310164-.453793.770978-.340835,1.204609s.451596.772267.885226.885226.894445-.017425,1.204609-.340835l8.763-8.763v0l.16-.193.048-.1.064-.112.032-.128.032-.1c.018561-.079087.029279-.15981.032-.241v0c-.002823-.081181-.01354-.161895-.032-.241L24.69,9.7l-.032-.128-.064-.128-.048-.1-.16-.193L15.622,0.4c-.310164-.32341-.770978-.453793-1.204609-.340835s-.772267.451596-.885226.885226.017425.894445.340835,1.204609L20.517,8.8h-19.323c-.444438,0-.855116.237105-1.077336.622s-.222219.859105,0,1.244.632898.622,1.077336.622Z" transform="translate(.050001-.042998)" fill="#113a55"/></svg>