<svg id="eSByXqPVGNR1" xmlns="http://www.w3.org/2000/svg" xmlns:xlink="http://www.w3.org/1999/xlink" viewBox="0 0 8.647 13.564" shape-rendering="geometricPrecision" text-rendering="geometricPrecision"><g clip-path="url(#eSByXqPVGNR6)"><g><path d="M1.255,13.531v0c-.332847,0-.652061-.132223-.887419-.367581s-.367581-.554572-.367581-.887419L0,1.222c-.012979-.462765.226489-.896043.625232-1.131254s.893793-.23521,1.292536,0s.638211.668489.625232,1.131254v11.054c.000124.338822-.136755.663299-.379519.89966s-.570783.364519-.909481.35534" transform="translate(0 0.033)" fill="#fff"/><path d="M19.355,13.531v0c-.693117,0-1.255-.561883-1.255-1.255v-11.054c-.012979-.462765.226489-.896043.625232-1.131254s.893793-.23521,1.292536,0s.638211.668489.625232,1.131254v11.054c.000124.338822-.136755.663299-.379519.89966s-.570783.364519-.909481.35534" transform="translate(-11.962 0.033)" fill="#fff"/></g><clipPath id="eSByXqPVGNR6"><rect width="8.647" height="13.564" rx="0" ry="0" fill="#ffffff"/></clipPath></g></svg>