<svg id="eLGQwNlx7tO1" xmlns="http://www.w3.org/2000/svg" xmlns:xlink="http://www.w3.org/1999/xlink" viewBox="0 0 11.792 7.917" shape-rendering="geometricPrecision" text-rendering="geometricPrecision"><path d="M2.646,5.881C4.264,7.233,5.847,8.542,7.4,9.868c.237766.216685.404693.500009.479.813.085037.410818-.134169.824033-.522.984-.373876.210121-.840654.154754-1.155-.137L2.791,8.687L0.462,6.736c-.288357-.18907-.462064-.510685-.462064-.8555s.173707-.66643.462064-.8555C2.346,3.459,4.221,1.884,6.12,0.335c.229893-.182686.505626-.298584.797-.335.429626-.019088.817309.256122.941.668.148201.415309.009252.87874-.343,1.144C6.3,2.834,5.087,3.844,3.869,4.862Z" transform="matrix(0 1-1 0 11.791068 0.000001)"/></svg>