<svg id="eCdNp6z24Pj1" xmlns="http://www.w3.org/2000/svg" xmlns:xlink="http://www.w3.org/1999/xlink" viewBox="0 0 21 21.017" shape-rendering="geometricPrecision" text-rendering="geometricPrecision"><g transform="translate(-43.015-5.992999)"><path d="M14.478,15.186c-1.76837,1.553617-4.089573,2.326605-6.436334,2.143376s-4.51986-1.30712-6.025666-3.116376c-2.774589-3.432437-2.520001-8.403326.59074-11.534341s8.079871-3.417891,11.53026-.665659c1.856876,1.469642,3.003452,3.657767,3.155,6.021.19834,2.359958-.581532,4.697769-2.157,6.466l.289.237c.167624.279985.497772.418525.815.342.337347-.050594.676553.07917.894.342l3.6,3.628c.466192.480816.460721,1.246634-.012293,1.72074s-1.238817.481343-1.720707.01626l-3.6-3.628c-.303007-.291823-.432535-.720175-.342-1.131.017132-.111666-.011335-.225533-.079-.316-.16-.183-.344-.341-.501-.525Zm1.393-6.442c-.000112-3.406567-2.403228-6.340125-5.743122-7.010805s-6.689215,1.107738-8.004425,4.250177-.231129,6.776375,2.590806,8.684615s6.598192,1.560946,9.024741-.829987c1.364063-1.344041,2.132063-3.179029,2.132-5.094Z" transform="translate(42.92 5.865)" fill="#fff"/></g></svg>