<svg id="erCXTnzysfh1" xmlns="http://www.w3.org/2000/svg" xmlns:xlink="http://www.w3.org/1999/xlink" viewBox="0 0 15.529 13.765" shape-rendering="geometricPrecision" text-rendering="geometricPrecision"><path d="M616.85,1010.422c-1.818-1.548-3.667-3.077-5.555-4.655l1.429-1.189c1.421-1.189,2.837-2.367,4.255-3.56.411327-.309368.57344-.850421.4-1.335-.146-.480216-.59855-.800704-1.1-.779-.339964.043145-.661787.177958-.931.39-1.908,1.557-3.795,3.135-5.686,4.71l-1.762-1.476-3.986-3.318c-.367229-.339889-.911768-.404119-1.348-.159-.45316.186502-.709395.669149-.61,1.149.086764.36554.281962.69633.56.949c1.818,1.547,3.665,3.076,5.553,4.654l-1.427,1.189c-1.422,1.189-2.837,2.367-4.256,3.56-.411048.309561-.573101.850413-.4,1.335.146.480216.59855.800704,1.1.779.339449-.042806.660715-.177676.929-.39c1.909-1.557,3.8-3.135,5.687-4.71l1.762,1.476l3.985,3.318c.367687.339758.912395.40396,1.349.159.452875-.186816.708976-.669209.61-1.149-.08634-.364961-.28082-.695368-.558-.948Z" transform="matrix(-1 0 0-1 617.448 1012.67)" fill="#fff"/></svg>