<svg id="exI23zOFAob1" xmlns="http://www.w3.org/2000/svg" xmlns:xlink="http://www.w3.org/1999/xlink" viewBox="0 0 20.9 17.504" shape-rendering="geometricPrecision" text-rendering="geometricPrecision"><path d="M57.3,5.1c-.889715.421774-1.831163.724382-2.8.9.981179-.684993,1.717137-1.66627,2.1-2.8-.696536.464054-1.432735.865617-2.2,1.2l-.5-.5c-.670963-.869286-1.701993-1.384801-2.8-1.4-1.122178-.027721-2.206647.40587-3.000388,1.199612s-1.227333,1.87821-1.199612,3.000388c.002503.236708.036125.472059.1.7h-.1c-4.2,0-6.9-.9-9.1-3.5-.42146.62258-.663619,1.34906-.7,2.1.0664,1.445725.855607,2.761071,2.1,3.5-.742806-.076774-1.45969-.315735-2.1-.7c0,2.1,2.9,4.5,4.9,4.9-.7.7-3.2.1-3.5,0c.647264,1.743323,2.341831,2.873034,4.2,2.8-1.491401,1.13805-3.324355,1.737285-5.2,1.7h-1c2.124419,1.229832,4.545842,1.852484,7,1.8c7.9,0,11.8-6.2,11.8-11.8v-.7c.829746-.637276,1.540628-1.415861,2.1-2.3" transform="translate(-36.5-2.499)" fill="#fff"/></svg>